# xmcd CD database file
#
# Track frame offsets:
#	150
#	17976
#	37551
#	54981
#	75126
#	92870
#	107986
#	123170
#	136760
#	152703
#	171346
#	189682
#
# Disc length: 2707 seconds
#
# Revision: 0
# Processed by: cddbd v1.4PL0 Copyright (c) Steve Scherf et al.
# Submitted via: CDex 1.40Release
#
DISCID=8b0a910c
DTITLE=Stoney Larue and The Organic Boogie Band (S.L.O.B.B.) - Downtown
DYEAR=1900
DGENRE=Country
TTITLE0=Texas Moon
TTITLE1=Downtown
TTITLE2=Finelines
TTITLE3=Dirty Fightin' Love
TTITLE4=Shot Full Of Holes
TTITLE5=Feet Don't Touch The Ground
TTITLE6=Goin' To Austin
TTITLE7=Dance With The Gypsies
TTITLE8=Train To Sanity
TTITLE9=Heather Grows
TTITLE10=Hey Sarah
TTITLE11=The Reaper
EXTD=ID3G: 2
EXTT0=
EXTT1=
EXTT2=
EXTT3=
EXTT4=
EXTT5=
EXTT6=
EXTT7=
EXTT8=
EXTT9=
EXTT10=
EXTT11=
PLAYORDER=
